<!-- Generated by ChatGPT -->
<svg xmlns="http://www.w3.org/2000/svg" viewBox="0 0 64 64">
  <defs>
    <radialGradient id="g" cx="30%" cy="25%" r="85%">
      <stop offset="0%" stop-color="#d8b4fe"/>
      <stop offset="45%" stop-color="#8b5cf6"/>
      <stop offset="100%" stop-color="#2563eb"/>
    </radialGradient>
  </defs>

  <path
    fill="url(#g)"
    d="
      M32 6
      C41 2,50 8,48 18
      C58 14,62 24,56 31
      C64 38,58 50,47 48
      C48 60,35 63,30 53
      C24 61,12 58,12 47
      C2 46,0 33,10 29
      C4 18,13 10,22 15
      C22 5,28 3,32 6
      Z"
  />

  <ellipse
    cx="24"
    cy="18"
    rx="11"
    ry="7"
    fill="#fff"
    opacity="0.18"
    transform="rotate(-25 24 18)"
  />
</svg>

